<svg width="129" height="117" viewBox="0 0 129 117" fill="none" xmlns="http://www.w3.org/2000/svg">
<g filter="url(#filter0_d)">
<ellipse cx="56.6267" cy="54.8099" rx="40.2746" ry="39.0634" fill="url(#paint0_linear)"/>
</g>
<g filter="url(#filter1_d)">
<ellipse cx="65.4085" cy="78.4296" rx="24.2254" ry="23.3169" fill="white"/>
</g>
<g filter="url(#filter2_d)">
<ellipse cx="93.8731" cy="84.1831" rx="18.169" ry="17.5634" fill="white"/>
</g>
<rect x="64.8027" y="79.9437" width="29.6761" height="21.8028" fill="white"/>
<g filter="url(#filter3_d)">
<path d="M61.2174 93.0704C60.8621 93.0704 60.5633 92.9493 60.3211 92.7071C60.0788 92.4648 59.9577 92.166 59.9577 91.8107V75.4102C59.9577 75.0387 60.0788 74.7399 60.3211 74.5138C60.5633 74.2716 60.8621 74.1504 61.2174 74.1504H66.0625C67.2737 74.1504 68.3477 74.4169 69.2845 74.9499C70.2212 75.4828 70.9479 76.2257 71.4647 77.1786C71.9977 78.1153 72.2642 79.1974 72.2642 80.4248C72.2642 81.6038 71.9977 82.6535 71.4647 83.5741C70.9479 84.4947 70.2212 85.2133 69.2845 85.7302C68.3477 86.247 67.2737 86.5054 66.0625 86.5054H62.4771V91.8107C62.4771 92.166 62.356 92.4648 62.1137 92.7071C61.8876 92.9493 61.5889 93.0704 61.2174 93.0704ZM62.4771 84.1797H66.0625C67.1607 84.1797 68.0651 83.8325 68.7757 83.138C69.4863 82.4274 69.8416 81.523 69.8416 80.4248C69.8416 79.6496 69.6801 78.9713 69.3571 78.3899C69.0341 77.7923 68.59 77.324 68.0247 76.9848C67.4595 76.6456 66.8054 76.4761 66.0625 76.4761H62.4771V84.1797ZM76.0202 93.0704C75.2127 93.0704 74.809 92.6667 74.809 91.8592V81.0304C74.809 80.2229 75.2127 79.8192 76.0202 79.8192C76.8277 79.8192 77.2315 80.2229 77.2315 81.0304V81.4907C77.716 80.9255 78.3055 80.4813 79 80.1583C79.7106 79.8353 80.4777 79.6738 81.3014 79.6738C82.2704 79.6738 82.9891 79.8353 83.4574 80.1583C83.9419 80.4652 84.1277 80.8366 84.0146 81.2727C83.9339 81.6118 83.7723 81.8379 83.5301 81.951C83.2878 82.0479 83.0052 82.064 82.6822 81.9994C81.6486 81.7895 80.72 81.7733 79.8963 81.951C79.0726 82.1287 78.4185 82.4597 77.934 82.9442C77.4657 83.4287 77.2315 84.0425 77.2315 84.7854V91.8592C77.2315 92.6667 76.8277 93.0704 76.0202 93.0704ZM91.6284 93.1673C90.3202 93.1673 89.1655 92.8847 88.1641 92.3194C87.1628 91.738 86.3715 90.9467 85.7901 89.9454C85.2248 88.9279 84.9422 87.7651 84.9422 86.4569C84.9422 85.1326 85.2248 83.9698 85.7901 82.9685C86.3715 81.951 87.1628 81.1596 88.1641 80.5944C89.1655 80.013 90.3202 79.7223 91.6284 79.7223C92.9204 79.7223 94.067 80.013 95.0684 80.5944C96.0697 81.1596 96.853 81.951 97.4182 82.9685C97.9996 83.9698 98.2903 85.1326 98.2903 86.4569C98.2903 87.7651 98.0077 88.9279 97.4424 89.9454C96.8772 90.9467 96.0939 91.738 95.0926 92.3194C94.0913 92.8847 92.9365 93.1673 91.6284 93.1673ZM91.6284 90.9871C92.4682 90.9871 93.2111 90.7933 93.8571 90.4056C94.5031 90.018 95.0038 89.4851 95.3591 88.8068C95.7305 88.1285 95.9163 87.3452 95.9163 86.4569C95.9163 85.5687 95.7305 84.7854 95.3591 84.1071C95.0038 83.4126 94.5031 82.8716 93.8571 82.484C93.2111 82.0963 92.4682 81.9025 91.6284 81.9025C90.7886 81.9025 90.0456 82.0963 89.3996 82.484C88.7536 82.8716 88.2449 83.4126 87.8734 84.1071C87.502 84.7854 87.3163 85.5687 87.3163 86.4569C87.3163 87.3452 87.502 88.1285 87.8734 88.8068C88.2449 89.4851 88.7536 90.018 89.3996 90.4056C90.0456 90.7933 90.7886 90.9871 91.6284 90.9871Z" fill="#E67E22"/>
</g>
<defs>
<filter id="filter0_d" x="13.9295" y="15.7465" width="85.3944" height="82.9718" filterUnits="userSpaceOnUse" color-interpolation-filters="sRGB">
<feFlood flood-opacity="0" result="BackgroundImageFix"/>
<feColorMatrix in="SourceAlpha" type="matrix" values="0 0 0 0 0 0 0 0 0 0 0 0 0 0 0 0 0 0 127 0"/>
<feOffset dy="2.42254"/>
<feGaussianBlur stdDeviation="1.21127"/>
<feColorMatrix type="matrix" values="0 0 0 0 0 0 0 0 0 0 0 0 0 0 0 0 0 0 0.25 0"/>
<feBlend mode="normal" in2="BackgroundImageFix" result="effect1_dropShadow"/>
<feBlend mode="normal" in="SourceGraphic" in2="effect1_dropShadow" result="shape"/>
</filter>
<filter id="filter1_d" x="38.7606" y="55.1127" width="53.2958" height="51.4789" filterUnits="userSpaceOnUse" color-interpolation-filters="sRGB">
<feFlood flood-opacity="0" result="BackgroundImageFix"/>
<feColorMatrix in="SourceAlpha" type="matrix" values="0 0 0 0 0 0 0 0 0 0 0 0 0 0 0 0 0 0 127 0"/>
<feOffset dy="2.42254"/>
<feGaussianBlur stdDeviation="1.21127"/>
<feColorMatrix type="matrix" values="0 0 0 0 0 0 0 0 0 0 0 0 0 0 0 0 0 0 0.25 0"/>
<feBlend mode="normal" in2="BackgroundImageFix" result="effect1_dropShadow"/>
<feBlend mode="normal" in="SourceGraphic" in2="effect1_dropShadow" result="shape"/>
</filter>
<filter id="filter2_d" x="73.2816" y="66.6197" width="41.1831" height="39.9718" filterUnits="userSpaceOnUse" color-interpolation-filters="sRGB">
<feFlood flood-opacity="0" result="BackgroundImageFix"/>
<feColorMatrix in="SourceAlpha" type="matrix" values="0 0 0 0 0 0 0 0 0 0 0 0 0 0 0 0 0 0 127 0"/>
<feOffset dy="2.42254"/>
<feGaussianBlur stdDeviation="1.21127"/>
<feColorMatrix type="matrix" values="0 0 0 0 0 0 0 0 0 0 0 0 0 0 0 0 0 0 0.25 0"/>
<feBlend mode="normal" in2="BackgroundImageFix" result="effect1_dropShadow"/>
<feBlend mode="normal" in="SourceGraphic" in2="effect1_dropShadow" result="shape"/>
</filter>
<filter id="filter3_d" x="52.6899" y="69.3054" width="52.8679" height="33.5521" filterUnits="userSpaceOnUse" color-interpolation-filters="sRGB">
<feFlood flood-opacity="0" result="BackgroundImageFix"/>
<feColorMatrix in="SourceAlpha" type="matrix" values="0 0 0 0 0 0 0 0 0 0 0 0 0 0 0 0 0 0 127 0"/>
<feOffset dy="2.42254"/>
<feGaussianBlur stdDeviation="3.6338"/>
<feColorMatrix type="matrix" values="0 0 0 0 0 0 0 0 0 0 0 0 0 0 0 0 0 0 0.25 0"/>
<feBlend mode="normal" in2="BackgroundImageFix" result="effect1_dropShadow"/>
<feBlend mode="normal" in="SourceGraphic" in2="effect1_dropShadow" result="shape"/>
</filter>
<linearGradient id="paint0_linear" x1="56.6267" y1="15.7465" x2="56.6267" y2="60.9949" gradientUnits="userSpaceOnUse">
<stop stop-color="#E67E22"/>
<stop offset="0.484375" stop-color="#F39C12"/>
<stop offset="1" stop-color="#F1C40F"/>
</linearGradient>
</defs>
</svg>
