<svg width="283" height="211" viewBox="0 0 283 211" fill="none" xmlns="http://www.w3.org/2000/svg">
<rect width="283" height="211" rx="12" fill="#C4C4C4"/>
<rect x="11" y="12" width="49" height="49" rx="7" fill="white" fill-opacity="0.5"/>
<rect x="153" y="12" width="49" height="49" rx="7" fill="white" fill-opacity="0.5"/>
<rect x="224" y="12" width="49" height="49" rx="7" fill="white" fill-opacity="0.5"/>
<rect x="82" y="12" width="49" height="49" rx="7" fill="white" fill-opacity="0.5"/>
<rect x="11" y="73" width="49" height="49" rx="7" fill="white" fill-opacity="0.5"/>
<rect x="153" y="73" width="49" height="49" rx="7" fill="white"/>
<rect x="224" y="73" width="49" height="49" rx="7" fill="white" fill-opacity="0.5"/>
<rect x="82" y="73" width="49" height="49" rx="7" fill="white" fill-opacity="0.5"/>
<path d="M180.097 163.351V142.4L189.25 151.553C189.981 152.285 191.182 152.285 191.913 151.553C192.265 151.203 192.462 150.727 192.462 150.231C192.462 149.735 192.265 149.259 191.913 148.909L179.553 136.549C178.822 135.817 177.64 135.817 176.909 136.549L164.549 148.909C163.817 149.64 163.817 150.822 164.549 151.553C165.28 152.285 166.462 152.285 167.193 151.553L176.346 142.4V163.351C176.346 164.382 177.19 165.226 178.222 165.226C179.253 165.226 180.097 164.382 180.097 163.351Z" fill="#2186A7"/>
<g filter="url(#filter0_d)">
<ellipse cx="175.293" cy="96.6415" rx="14.4327" ry="13.9986" fill="url(#paint0_linear)"/>
</g>
<g filter="url(#filter1_d)">
<ellipse cx="178.44" cy="105.106" rx="8.68131" ry="8.35576" fill="white"/>
</g>
<g filter="url(#filter2_d)">
<ellipse cx="188.64" cy="107.168" rx="6.51098" ry="6.29395" fill="white"/>
</g>
<rect x="178.223" y="105.648" width="10.6346" height="7.81318" fill="white"/>
<g filter="url(#filter3_d)">
<path d="M176.938 110.827C176.81 110.827 176.703 110.783 176.617 110.697C176.53 110.61 176.486 110.503 176.486 110.375V104.498C176.486 104.365 176.53 104.258 176.617 104.177C176.703 104.09 176.81 104.047 176.938 104.047H178.674C179.108 104.047 179.493 104.142 179.829 104.333C180.164 104.524 180.425 104.791 180.61 105.132C180.801 105.468 180.896 105.855 180.896 106.295C180.896 106.718 180.801 107.094 180.61 107.424C180.425 107.754 180.164 108.011 179.829 108.196C179.493 108.382 179.108 108.474 178.674 108.474H177.389V110.375C177.389 110.503 177.346 110.61 177.259 110.697C177.178 110.783 177.071 110.827 176.938 110.827ZM177.389 107.641H178.674C179.068 107.641 179.392 107.516 179.646 107.268C179.901 107.013 180.028 106.689 180.028 106.295C180.028 106.017 179.97 105.774 179.855 105.566C179.739 105.352 179.58 105.184 179.377 105.063C179.175 104.941 178.94 104.88 178.674 104.88H177.389V107.641ZM182.242 110.827C181.953 110.827 181.808 110.682 181.808 110.393V106.512C181.808 106.223 181.953 106.078 182.242 106.078C182.532 106.078 182.676 106.223 182.676 106.512V106.677C182.85 106.475 183.061 106.316 183.31 106.2C183.565 106.084 183.84 106.026 184.135 106.026C184.482 106.026 184.74 106.084 184.908 106.2C185.081 106.31 185.148 106.443 185.107 106.599C185.078 106.721 185.02 106.802 184.934 106.842C184.847 106.877 184.746 106.883 184.63 106.86C184.259 106.784 183.927 106.779 183.631 106.842C183.336 106.906 183.102 107.024 182.928 107.198C182.76 107.372 182.676 107.592 182.676 107.858V110.393C182.676 110.682 182.532 110.827 182.242 110.827ZM187.836 110.862C187.367 110.862 186.953 110.76 186.594 110.558C186.235 110.349 185.952 110.066 185.743 109.707C185.541 109.342 185.44 108.926 185.44 108.457C185.44 107.982 185.541 107.566 185.743 107.207C185.952 106.842 186.235 106.559 186.594 106.356C186.953 106.148 187.367 106.044 187.836 106.044C188.299 106.044 188.71 106.148 189.068 106.356C189.427 106.559 189.708 106.842 189.911 107.207C190.119 107.566 190.223 107.982 190.223 108.457C190.223 108.926 190.122 109.342 189.919 109.707C189.717 110.066 189.436 110.349 189.077 110.558C188.718 110.76 188.304 110.862 187.836 110.862ZM187.836 110.08C188.137 110.08 188.403 110.011 188.634 109.872C188.866 109.733 189.045 109.542 189.173 109.299C189.306 109.056 189.372 108.775 189.372 108.457C189.372 108.139 189.306 107.858 189.173 107.615C189.045 107.366 188.866 107.172 188.634 107.033C188.403 106.894 188.137 106.825 187.836 106.825C187.535 106.825 187.269 106.894 187.037 107.033C186.806 107.172 186.623 107.366 186.49 107.615C186.357 107.858 186.29 108.139 186.29 108.457C186.29 108.775 186.357 109.056 186.49 109.299C186.623 109.542 186.806 109.733 187.037 109.872C187.269 110.011 187.535 110.08 187.836 110.08Z" fill="#E67E22"/>
</g>
<path d="M163.254 131C163.198 131 163.152 130.982 163.116 130.946C163.08 130.909 163.062 130.863 163.062 130.807V127.336C163.062 127.28 163.08 127.234 163.116 127.198C163.152 127.162 163.198 127.144 163.254 127.144H164.242C164.485 127.144 164.701 127.198 164.889 127.307C165.076 127.412 165.223 127.559 165.328 127.746C165.433 127.934 165.486 128.151 165.486 128.398C165.486 128.638 165.433 128.852 165.328 129.04C165.223 129.224 165.076 129.371 164.889 129.479C164.701 129.585 164.485 129.637 164.242 129.637H163.447V130.807C163.447 130.863 163.429 130.909 163.393 130.946C163.356 130.982 163.31 131 163.254 131ZM163.447 129.267H164.242C164.41 129.267 164.56 129.231 164.691 129.158C164.823 129.083 164.925 128.979 164.997 128.847C165.073 128.716 165.111 128.566 165.111 128.398C165.111 128.224 165.073 128.07 164.997 127.939C164.925 127.807 164.823 127.703 164.691 127.628C164.56 127.552 164.41 127.514 164.242 127.514H163.447V129.267ZM166.194 129.336C166.204 129.132 166.256 128.949 166.352 128.788C166.45 128.627 166.577 128.5 166.732 128.408C166.89 128.316 167.064 128.27 167.255 128.27C167.407 128.27 167.523 128.291 167.606 128.334C167.688 128.377 167.719 128.439 167.7 128.521C167.686 128.571 167.663 128.604 167.63 128.62C167.601 128.637 167.563 128.643 167.517 128.64C167.474 128.637 167.425 128.633 167.369 128.63C167.184 128.614 167.02 128.633 166.875 128.689C166.733 128.742 166.62 128.824 166.534 128.936C166.452 129.048 166.411 129.181 166.411 129.336H166.194ZM166.223 131C166.164 131 166.118 130.984 166.085 130.951C166.052 130.918 166.036 130.872 166.036 130.812V128.487C166.036 128.428 166.052 128.382 166.085 128.349C166.118 128.316 166.164 128.299 166.223 128.299C166.283 128.299 166.329 128.316 166.362 128.349C166.394 128.382 166.411 128.428 166.411 128.487V130.812C166.411 130.872 166.394 130.918 166.362 130.951C166.329 130.984 166.283 131 166.223 131ZM169.329 131.025C169.065 131.025 168.83 130.965 168.623 130.847C168.415 130.728 168.252 130.566 168.134 130.358C168.015 130.151 167.956 129.915 167.956 129.652C167.956 129.385 168.015 129.148 168.134 128.941C168.252 128.734 168.415 128.571 168.623 128.452C168.83 128.334 169.065 128.275 169.329 128.275C169.592 128.275 169.826 128.334 170.03 128.452C170.237 128.571 170.4 128.734 170.519 128.941C170.637 129.148 170.698 129.385 170.701 129.652C170.701 129.915 170.64 130.151 170.519 130.358C170.4 130.566 170.237 130.728 170.03 130.847C169.826 130.965 169.592 131.025 169.329 131.025ZM169.329 130.679C169.52 130.679 169.691 130.635 169.842 130.546C169.994 130.457 170.112 130.335 170.198 130.18C170.283 130.026 170.326 129.85 170.326 129.652C170.326 129.455 170.283 129.278 170.198 129.124C170.112 128.966 169.994 128.842 169.842 128.753C169.691 128.665 169.52 128.62 169.329 128.62C169.138 128.62 168.967 128.665 168.815 128.753C168.664 128.842 168.544 128.966 168.455 129.124C168.369 129.278 168.326 129.455 168.326 129.652C168.326 129.85 168.369 130.026 168.455 130.18C168.544 130.335 168.664 130.457 168.815 130.546C168.967 130.635 169.138 130.679 169.329 130.679ZM173.761 131C173.715 131 173.674 130.985 173.638 130.956C173.605 130.926 173.582 130.888 173.569 130.842L172.557 127.42C172.533 127.341 172.537 127.276 172.566 127.223C172.599 127.17 172.65 127.144 172.719 127.144C172.759 127.144 172.795 127.155 172.828 127.178C172.864 127.198 172.891 127.236 172.907 127.292L173.821 130.472H173.707L174.571 127.376C174.581 127.34 174.602 127.31 174.635 127.287C174.671 127.264 174.711 127.252 174.754 127.252C174.793 127.252 174.831 127.264 174.867 127.287C174.903 127.307 174.926 127.338 174.936 127.381L175.805 130.472H175.692L176.61 127.272C176.633 127.187 176.696 127.144 176.798 127.144C176.867 127.144 176.915 127.172 176.941 127.228C176.967 127.28 176.971 127.345 176.951 127.42L175.944 130.837C175.927 130.89 175.901 130.931 175.865 130.961C175.832 130.987 175.792 131 175.746 131C175.7 131 175.659 130.985 175.623 130.956C175.59 130.926 175.567 130.888 175.554 130.842L174.694 127.707H174.813L173.959 130.837C173.942 130.886 173.916 130.926 173.88 130.956C173.847 130.985 173.807 131 173.761 131ZM178.201 131.025C177.934 131.025 177.697 130.967 177.49 130.852C177.286 130.733 177.124 130.57 177.006 130.363C176.891 130.156 176.833 129.919 176.833 129.652C176.833 129.382 176.887 129.145 176.996 128.941C177.108 128.734 177.261 128.571 177.455 128.452C177.649 128.334 177.873 128.275 178.127 128.275C178.377 128.275 178.594 128.332 178.778 128.447C178.966 128.559 179.111 128.716 179.213 128.916C179.315 129.117 179.366 129.346 179.366 129.603C179.366 129.655 179.349 129.698 179.317 129.731C179.284 129.761 179.241 129.776 179.188 129.776H177.09V129.46H179.228L179.015 129.613C179.019 129.422 178.984 129.25 178.912 129.099C178.839 128.948 178.736 128.829 178.601 128.744C178.469 128.658 178.311 128.615 178.127 128.615C177.939 128.615 177.774 128.66 177.633 128.749C177.491 128.837 177.381 128.961 177.302 129.119C177.226 129.274 177.188 129.451 177.188 129.652C177.188 129.853 177.231 130.031 177.317 130.185C177.406 130.34 177.526 130.462 177.677 130.551C177.829 130.64 178.003 130.684 178.201 130.684C178.319 130.684 178.438 130.664 178.556 130.625C178.678 130.582 178.775 130.529 178.847 130.467C178.884 130.437 178.925 130.422 178.971 130.422C179.017 130.419 179.056 130.431 179.089 130.457C179.132 130.496 179.154 130.539 179.154 130.585C179.157 130.631 179.139 130.671 179.099 130.704C178.991 130.796 178.852 130.873 178.685 130.936C178.517 130.995 178.355 131.025 178.201 131.025ZM181.103 131.025C180.849 131.025 180.622 130.965 180.421 130.847C180.22 130.725 180.061 130.561 179.942 130.353C179.827 130.146 179.769 129.912 179.769 129.652C179.769 129.389 179.829 129.153 179.947 128.946C180.069 128.739 180.234 128.576 180.441 128.457C180.648 128.335 180.882 128.275 181.142 128.275C181.402 128.275 181.634 128.335 181.838 128.457C182.046 128.576 182.208 128.739 182.327 128.946C182.449 129.153 182.511 129.389 182.515 129.652L182.362 129.771C182.362 130.008 182.306 130.222 182.194 130.412C182.085 130.6 181.935 130.75 181.744 130.862C181.557 130.97 181.343 131.025 181.103 131.025ZM181.142 130.679C181.333 130.679 181.502 130.635 181.651 130.546C181.802 130.457 181.92 130.335 182.006 130.18C182.095 130.022 182.139 129.846 182.139 129.652C182.139 129.455 182.095 129.278 182.006 129.124C181.92 128.969 181.802 128.847 181.651 128.758C181.502 128.666 181.333 128.62 181.142 128.62C180.954 128.62 180.785 128.666 180.633 128.758C180.482 128.847 180.362 128.969 180.273 129.124C180.184 129.278 180.14 129.455 180.14 129.652C180.14 129.846 180.184 130.022 180.273 130.18C180.362 130.335 180.482 130.457 180.633 130.546C180.785 130.635 180.954 130.679 181.142 130.679ZM182.322 131C182.266 131 182.22 130.984 182.184 130.951C182.148 130.914 182.13 130.868 182.13 130.812V129.968L182.223 129.578L182.515 129.652V130.812C182.515 130.868 182.497 130.914 182.46 130.951C182.424 130.984 182.378 131 182.322 131ZM184.311 131C184.136 131 183.98 130.959 183.842 130.877C183.707 130.794 183.6 130.682 183.521 130.541C183.442 130.396 183.402 130.231 183.402 130.047V127.633C183.402 127.577 183.419 127.531 183.452 127.494C183.488 127.458 183.534 127.44 183.59 127.44C183.646 127.44 183.692 127.458 183.728 127.494C183.764 127.531 183.782 127.577 183.782 127.633V130.047C183.782 130.215 183.832 130.353 183.93 130.462C184.029 130.567 184.156 130.62 184.311 130.62H184.444C184.497 130.62 184.539 130.638 184.572 130.674C184.605 130.71 184.622 130.756 184.622 130.812C184.622 130.868 184.602 130.914 184.562 130.951C184.523 130.984 184.474 131 184.414 131H184.311ZM183.081 128.729C183.032 128.729 182.991 128.714 182.958 128.684C182.925 128.651 182.908 128.612 182.908 128.566C182.908 128.516 182.925 128.477 182.958 128.447C182.991 128.414 183.032 128.398 183.081 128.398H184.34C184.39 128.398 184.431 128.414 184.464 128.447C184.497 128.477 184.513 128.516 184.513 128.566C184.513 128.612 184.497 128.651 184.464 128.684C184.431 128.714 184.39 128.729 184.34 128.729H183.081ZM187.556 131C187.5 131 187.454 130.982 187.418 130.946C187.382 130.909 187.364 130.865 187.364 130.812V129.529C187.364 129.325 187.324 129.157 187.245 129.025C187.169 128.893 187.064 128.795 186.929 128.729C186.798 128.663 186.648 128.63 186.48 128.63C186.319 128.63 186.172 128.661 186.04 128.724C185.912 128.786 185.81 128.872 185.734 128.981C185.659 129.089 185.621 129.213 185.621 129.351H185.349C185.356 129.144 185.412 128.959 185.517 128.798C185.622 128.633 185.762 128.505 185.937 128.413C186.111 128.317 186.305 128.27 186.519 128.27C186.753 128.27 186.962 128.319 187.146 128.418C187.331 128.513 187.476 128.655 187.581 128.842C187.69 129.03 187.744 129.259 187.744 129.529V130.812C187.744 130.865 187.726 130.909 187.69 130.946C187.653 130.982 187.609 131 187.556 131ZM185.433 131C185.374 131 185.326 130.984 185.29 130.951C185.257 130.914 185.241 130.868 185.241 130.812V128.492C185.241 128.433 185.257 128.386 185.29 128.354C185.326 128.317 185.374 128.299 185.433 128.299C185.489 128.299 185.534 128.317 185.566 128.354C185.603 128.386 185.621 128.433 185.621 128.492V130.812C185.621 130.868 185.603 130.914 185.566 130.951C185.534 130.984 185.489 131 185.433 131ZM185.433 129.899C185.374 129.899 185.326 129.881 185.29 129.845C185.257 129.808 185.241 129.762 185.241 129.706V127.336C185.241 127.277 185.257 127.231 185.29 127.198C185.326 127.162 185.374 127.144 185.433 127.144C185.489 127.144 185.534 127.162 185.566 127.198C185.603 127.231 185.621 127.277 185.621 127.336V129.706C185.621 129.762 185.603 129.808 185.566 129.845C185.534 129.881 185.489 129.899 185.433 129.899ZM189.807 131.025C189.54 131.025 189.303 130.967 189.096 130.852C188.891 130.733 188.73 130.57 188.612 130.363C188.496 130.156 188.439 129.919 188.439 129.652C188.439 129.382 188.493 129.145 188.602 128.941C188.714 128.734 188.867 128.571 189.061 128.452C189.255 128.334 189.479 128.275 189.732 128.275C189.983 128.275 190.2 128.332 190.384 128.447C190.572 128.559 190.717 128.716 190.819 128.916C190.921 129.117 190.972 129.346 190.972 129.603C190.972 129.655 190.955 129.698 190.922 129.731C190.889 129.761 190.847 129.776 190.794 129.776H188.696V129.46H190.834L190.621 129.613C190.625 129.422 190.59 129.25 190.518 129.099C190.445 128.948 190.341 128.829 190.206 128.744C190.075 128.658 189.917 128.615 189.732 128.615C189.545 128.615 189.38 128.66 189.239 128.749C189.097 128.837 188.987 128.961 188.908 129.119C188.832 129.274 188.794 129.451 188.794 129.652C188.794 129.853 188.837 130.031 188.923 130.185C189.012 130.34 189.132 130.462 189.283 130.551C189.435 130.64 189.609 130.684 189.807 130.684C189.925 130.684 190.044 130.664 190.162 130.625C190.284 130.582 190.381 130.529 190.453 130.467C190.49 130.437 190.531 130.422 190.577 130.422C190.623 130.419 190.662 130.431 190.695 130.457C190.738 130.496 190.759 130.539 190.759 130.585C190.763 130.631 190.745 130.671 190.705 130.704C190.597 130.796 190.458 130.873 190.29 130.936C190.123 130.995 189.961 131.025 189.807 131.025ZM191.773 129.336C191.783 129.132 191.835 128.949 191.931 128.788C192.03 128.627 192.156 128.5 192.311 128.408C192.469 128.316 192.644 128.27 192.834 128.27C192.986 128.27 193.103 128.291 193.185 128.334C193.267 128.377 193.299 128.439 193.279 128.521C193.266 128.571 193.243 128.604 193.21 128.62C193.18 128.637 193.142 128.643 193.096 128.64C193.053 128.637 193.004 128.633 192.948 128.63C192.764 128.614 192.599 128.633 192.454 128.689C192.313 128.742 192.199 128.824 192.114 128.936C192.031 129.048 191.99 129.181 191.99 129.336H191.773ZM191.803 131C191.743 131 191.697 130.984 191.664 130.951C191.631 130.918 191.615 130.872 191.615 130.812V128.487C191.615 128.428 191.631 128.382 191.664 128.349C191.697 128.316 191.743 128.299 191.803 128.299C191.862 128.299 191.908 128.316 191.941 128.349C191.974 128.382 191.99 128.428 191.99 128.487V130.812C191.99 130.872 191.974 130.918 191.941 130.951C191.908 130.984 191.862 131 191.803 131Z" fill="black"/>
<defs>
<filter id="filter0_d" x="159.992" y="82.6429" width="30.6016" height="29.7335" filterUnits="userSpaceOnUse" color-interpolation-filters="sRGB">
<feFlood flood-opacity="0" result="BackgroundImageFix"/>
<feColorMatrix in="SourceAlpha" type="matrix" values="0 0 0 0 0 0 0 0 0 0 0 0 0 0 0 0 0 0 127 0"/>
<feOffset dy="0.868131"/>
<feGaussianBlur stdDeviation="0.434066"/>
<feColorMatrix type="matrix" values="0 0 0 0 0 0 0 0 0 0 0 0 0 0 0 0 0 0 0.25 0"/>
<feBlend mode="normal" in2="BackgroundImageFix" result="effect1_dropShadow"/>
<feBlend mode="normal" in="SourceGraphic" in2="effect1_dropShadow" result="shape"/>
</filter>
<filter id="filter1_d" x="168.89" y="96.75" width="19.0989" height="18.4478" filterUnits="userSpaceOnUse" color-interpolation-filters="sRGB">
<feFlood flood-opacity="0" result="BackgroundImageFix"/>
<feColorMatrix in="SourceAlpha" type="matrix" values="0 0 0 0 0 0 0 0 0 0 0 0 0 0 0 0 0 0 127 0"/>
<feOffset dy="0.868131"/>
<feGaussianBlur stdDeviation="0.434066"/>
<feColorMatrix type="matrix" values="0 0 0 0 0 0 0 0 0 0 0 0 0 0 0 0 0 0 0.25 0"/>
<feBlend mode="normal" in2="BackgroundImageFix" result="effect1_dropShadow"/>
<feBlend mode="normal" in="SourceGraphic" in2="effect1_dropShadow" result="shape"/>
</filter>
<filter id="filter2_d" x="181.261" y="100.874" width="14.7582" height="14.3242" filterUnits="userSpaceOnUse" color-interpolation-filters="sRGB">
<feFlood flood-opacity="0" result="BackgroundImageFix"/>
<feColorMatrix in="SourceAlpha" type="matrix" values="0 0 0 0 0 0 0 0 0 0 0 0 0 0 0 0 0 0 127 0"/>
<feOffset dy="0.868131"/>
<feGaussianBlur stdDeviation="0.434066"/>
<feColorMatrix type="matrix" values="0 0 0 0 0 0 0 0 0 0 0 0 0 0 0 0 0 0 0.25 0"/>
<feBlend mode="normal" in2="BackgroundImageFix" result="effect1_dropShadow"/>
<feBlend mode="normal" in="SourceGraphic" in2="effect1_dropShadow" result="shape"/>
</filter>
<filter id="filter3_d" x="173.882" y="102.311" width="18.9455" height="12.0236" filterUnits="userSpaceOnUse" color-interpolation-filters="sRGB">
<feFlood flood-opacity="0" result="BackgroundImageFix"/>
<feColorMatrix in="SourceAlpha" type="matrix" values="0 0 0 0 0 0 0 0 0 0 0 0 0 0 0 0 0 0 127 0"/>
<feOffset dy="0.868131"/>
<feGaussianBlur stdDeviation="1.3022"/>
<feColorMatrix type="matrix" values="0 0 0 0 0 0 0 0 0 0 0 0 0 0 0 0 0 0 0.25 0"/>
<feBlend mode="normal" in2="BackgroundImageFix" result="effect1_dropShadow"/>
<feBlend mode="normal" in="SourceGraphic" in2="effect1_dropShadow" result="shape"/>
</filter>
<linearGradient id="paint0_linear" x1="175.293" y1="82.6429" x2="175.293" y2="98.8579" gradientUnits="userSpaceOnUse">
<stop stop-color="#E67E22"/>
<stop offset="0.484375" stop-color="#F39C12"/>
<stop offset="1" stop-color="#F1C40F"/>
</linearGradient>
</defs>
</svg>
