<svg width="150" height="150" viewBox="0 0 150 150" fill="none" xmlns="http://www.w3.org/2000/svg">
<path d="M57.9673 59.3283C55.278 61.2192 52.0554 62.2141 48.6995 62.1896C45.3437 62.1651 42.0023 61.1223 39.09 59.1906L40.3165 57.0858C42.8123 58.7413 45.6758 59.6349 48.5518 59.6559C51.4277 59.6769 54.1894 58.8242 56.4941 57.2038L57.9673 59.3283Z" fill="#2980B9" fill-opacity="0.9"/>
<path d="M56.3042 57.4812C58.9936 55.5903 62.2162 54.5954 65.572 54.6199C68.9279 54.6444 72.2693 55.6872 75.1816 57.6189L73.955 59.7237C71.4592 58.0683 68.5957 57.1746 65.7198 57.1536C62.8439 57.1326 60.0822 57.9853 57.7774 59.6057L56.3042 57.4812Z" fill="#2980B9" fill-opacity="0.9"/>
<path d="M92.6081 59.5581C89.9188 61.4489 86.6962 62.4438 83.3403 62.4193C79.9845 62.3949 76.6431 61.3521 73.7308 59.4204L74.9573 57.3155C77.4531 58.971 80.3167 59.8646 83.1926 59.8856C86.0685 59.9066 88.8302 59.054 91.1349 57.4335L92.6081 59.5581Z" fill="#2980B9" fill-opacity="0.9"/>
<path d="M90.945 57.711C93.6344 55.8201 96.857 54.8252 100.213 54.8497C103.569 54.8742 106.91 55.917 109.822 57.8487L108.596 59.9535C106.1 58.2981 103.237 57.4044 100.361 57.3834C97.4847 57.3624 94.723 58.2151 92.4182 59.8355L90.945 57.711Z" fill="#2980B9" fill-opacity="0.9"/>
<path d="M59.3562 75.5813C56.6668 77.4722 53.4442 78.4671 50.0884 78.4426C46.7325 78.4181 43.3911 77.3753 40.4788 75.4436L41.7054 73.3388C44.2012 74.9942 47.0647 75.8879 49.9406 75.9089C52.8165 75.9299 55.5782 75.0772 57.883 73.4568L59.3562 75.5813Z" fill="#2980B9" fill-opacity="0.9"/>
<path d="M57.693 73.7342C60.3824 71.8433 63.605 70.8484 66.9608 70.8729C70.3167 70.8974 73.6581 71.9402 76.5704 73.8719L75.3438 75.9767C72.8481 74.3212 69.9845 73.4276 67.1086 73.4066C64.2327 73.3856 61.471 74.2383 59.1662 75.8587L57.693 73.7342Z" fill="#2980B9" fill-opacity="0.9"/>
<path d="M93.997 75.8112C91.3076 77.702 88.085 78.6969 84.7292 78.6725C81.3733 78.648 78.0319 77.6052 75.1196 75.6735L76.3462 73.5687C78.842 75.2241 81.7055 76.1178 84.5814 76.1387C87.4574 76.1597 90.219 75.3071 92.5238 73.6867L93.997 75.8112Z" fill="#2980B9" fill-opacity="0.9"/>
<path d="M92.3338 73.964C95.0232 72.0732 98.2458 71.0783 101.602 71.1028C104.957 71.1272 108.299 72.17 111.211 74.1017L109.985 76.2066C107.489 74.5511 104.625 73.6574 101.749 73.6365C98.8735 73.6155 96.1118 74.4681 93.807 76.0886L92.3338 73.964Z" fill="#2980B9" fill-opacity="0.9"/>
<path d="M58.7779 92.3025C56.0885 94.1933 52.866 95.1883 49.5101 95.1638C46.1543 95.1393 42.8129 94.0965 39.9006 92.1648L41.1271 90.06C43.6229 91.7154 46.4864 92.6091 49.3624 92.6301C52.2383 92.651 55 91.7984 57.3047 90.178L58.7779 92.3025Z" fill="#2980B9" fill-opacity="0.9"/>
<path d="M57.1148 90.4554C59.8042 88.5646 63.0268 87.5697 66.3826 87.5941C69.7385 87.6186 73.0799 88.6614 75.9922 90.5931L74.7656 92.6979C72.2698 91.0425 69.4063 90.1488 66.5304 90.1279C63.6545 90.1069 60.8928 90.9595 58.588 92.5799L57.1148 90.4554Z" fill="#2980B9" fill-opacity="0.9"/>
<path d="M93.4188 92.5324C90.7294 94.4232 87.5068 95.4181 84.151 95.3936C80.7951 95.3692 77.4537 94.3264 74.5414 92.3947L75.768 90.2898C78.2637 91.9453 81.1273 92.839 84.0032 92.8599C86.8791 92.8809 89.6408 92.0283 91.9456 90.4078L93.4188 92.5324Z" fill="#2980B9" fill-opacity="0.9"/>
<path d="M91.7557 90.6851C94.445 88.7943 97.6676 87.7993 101.023 87.8238C104.379 87.8483 107.721 88.8911 110.633 90.8228L109.406 92.9276C106.911 91.2722 104.047 90.3785 101.171 90.3575C98.2953 90.3366 95.5336 91.1892 93.2288 92.8096L91.7557 90.6851Z" fill="#2980B9" fill-opacity="0.9"/>
</svg>
